<?xml version="1.0" encoding="UTF-8" standalone="no"?>
<!-- Created with Inkscape (http://www.inkscape.org/) -->

<svg
   xmlns:dc="http://purl.org/dc/elements/1.1/"
   xmlns:cc="http://creativecommons.org/ns#"
   xmlns:rdf="http://www.w3.org/1999/02/22-rdf-syntax-ns#"
   xmlns:svg="http://www.w3.org/2000/svg"
   xmlns="http://www.w3.org/2000/svg"
   xmlns:sodipodi="http://sodipodi.sourceforge.net/DTD/sodipodi-0.dtd"
   xmlns:inkscape="http://www.inkscape.org/namespaces/inkscape"
   width="744.09448819"
   height="1052.3622047"
   id="svg2"
   version="1.1"
   inkscape:version="0.48.4 r9939"
   sodipodi:docname="modelo.png">
  <defs
     id="defs4" />
  <sodipodi:namedview
     id="base"
     pagecolor="#ffffff"
     bordercolor="#666666"
     borderopacity="1.0"
     inkscape:pageopacity="0.0"
     inkscape:pageshadow="2"
     inkscape:zoom="0.175"
     inkscape:cx="-117.9412"
     inkscape:cy="1193.0699"
     inkscape:document-units="px"
     inkscape:current-layer="layer1"
     showgrid="false"
     inkscape:window-width="1325"
     inkscape:window-height="744"
     inkscape:window-x="41"
     inkscape:window-y="24"
     inkscape:window-maximized="1" />
  <metadata
     id="metadata7">
    <rdf:RDF>
      <cc:Work
         rdf:about="">
        <dc:format>image/svg+xml</dc:format>
        <dc:type
           rdf:resource="http://purl.org/dc/dcmitype/StillImage" />
        <dc:title></dc:title>
      </cc:Work>
    </rdf:RDF>
  </metadata>
  <g
     inkscape:label="Layer 1"
     inkscape:groupmode="layer"
     id="layer1">
    <flowRoot
       xml:space="preserve"
       id="flowRoot3884"
       style="fill:black;stroke:none;stroke-opacity:1;stroke-width:1px;stroke-linejoin:miter;stroke-linecap:butt;fill-opacity:1;font-family:Sans;font-style:normal;font-weight:normal;font-size:40px;line-height:125%;letter-spacing:0px;word-spacing:0px"><flowRegion
         id="flowRegion3886"><rect
           id="rect3888"
           width="541.44177"
           height="258.59906"
           x="141.42136"
           y="-345.68893" /></flowRegion><flowPara
         id="flowPara3890"></flowPara></flowRoot>    <g
       id="g4337"
       inkscape:export-filename="/home/schirrel/Dropbox/Latex Jasane/TCC/TCC/figuras/espacos.png"
       inkscape:export-xdpi="89"
       inkscape:export-ydpi="89">
      <g
         transform="translate(-783.87837,0)"
         id="g3902">
        <path
           inkscape:connector-curvature="0"
           style="fill:#0000ff;fill-opacity:1;stroke:none"
           d="m 410.6875,213.28125 c -0.73101,0.0192 -1.45845,0.0667 -2.1875,0.0937 1.01716,-0.0378 2.04184,-0.0713 3.0625,-0.0937 -0.29092,0.006 -0.58438,-0.008 -0.875,0 z m 9.6875,0 c 0.87468,0.0192 1.75159,0.032 2.625,0.0625 -0.64627,-0.0236 -1.28949,-0.0458 -1.9375,-0.0625 -0.22831,-0.006 -0.45892,0.005 -0.6875,0 z M 426.5,213.5 c 0.43813,0.0271 0.87577,0.0679 1.3125,0.0937 0.72916,0.0438 1.45854,0.0784 2.1875,0.125 -1.1025,-0.074 -2.2031,-0.16011 -3.3125,-0.21875 -0.063,-0.003 -0.1248,0.003 -0.1875,0 z m 3.5,0.21875 c 0.41702,0.0267 0.83485,0.0615 1.25,0.0937 -0.0528,-0.004 -0.10342,-0.0272 -0.15625,-0.0312 -0.3651,-0.0277 -0.73005,-0.0381 -1.09375,-0.0625 z m -32.25,0.34375 c -0.89339,0.0818 -1.79774,0.15626 -2.6875,0.25 -1.66217,0.17511 -3.31951,0.37504 -4.96875,0.59375 2.53537,-0.334 5.09096,-0.60841 7.65625,-0.84375 z m 43.53125,0.78125 c 0.40513,0.0527 0.81438,0.10106 1.21875,0.15625 -0.13558,-0.0184 -0.27058,-0.0444 -0.40625,-0.0625 -0.26978,-0.036 -0.54226,-0.0591 -0.8125,-0.0937 z m 3.40625,0.46875 c 1.10737,0.1637 2.21111,0.34945 3.3125,0.53125 -1.10207,-0.18194 -2.20405,-0.3679 -3.3125,-0.53125 z m -70.65625,2.40625 c 0.25864,1.18846 0.53255,2.38214 0.8125,3.5625 0.16604,0.70007 0.32652,1.39659 0.5,2.09375 0.0415,0.16683 0.0831,0.33334 0.125,0.5 0.26121,1.03802 0.53492,2.06234 0.8125,3.09375 0.098,0.36412 0.1812,0.73047 0.28125,1.09375 0.13853,0.50311 0.29291,0.99988 0.4375,1.5 -1.1053,-3.89348 -2.10089,-7.85591 -2.96875,-11.84375 z m 83.875,0 c -0.40208,1.84757 -0.82774,3.67223 -1.28125,5.5 0.11255,-0.44849 0.23545,-0.89344 0.34375,-1.34375 0.33054,-1.37475 0.63592,-2.77046 0.9375,-4.15625 z m 1.375,0.28125 c 0.9202,0.20631 1.8347,0.40589 2.75,0.625 -0.914,-0.21873 -1.8311,-0.41903 -2.75,-0.625 z m 9,2.25 c 0.8351,0.22921 1.6693,0.44763 2.5,0.6875 -0.8283,-0.23915 -1.6672,-0.45895 -2.5,-0.6875 z m -11.875,3.90625 c -0.23733,0.9368 -0.4993,1.88112 -0.75,2.8125 0.0901,-0.33487 0.19283,-0.66442 0.28125,-1 0.15926,-0.6046 0.31786,-1.20721 0.46875,-1.8125 z m 27.375,1.03125 c 1.5105,0.55309 3.007,1.13004 4.5,1.71875 -1.494,-0.58936 -2.9884,-1.16507 -4.5,-1.71875 z m -28.46875,2.96875 c -0.25137,0.91167 -0.51744,1.81213 -0.78125,2.71875 0.26335,-0.90333 0.53054,-1.8101 0.78125,-2.71875 z m -2.125,7.21875 c -1.21854,3.83363 -2.55729,7.61587 -4,11.34375 0.10078,-0.25133 0.21575,-0.49685 0.3125,-0.75 1.32882,-3.47835 2.55551,-7.02136 3.6875,-10.59375 z m -74.34375,0.28125 c 0.25785,0.80317 0.51443,1.60682 0.78125,2.40625 0.26474,0.79318 0.53655,1.5846 0.8125,2.375 -0.55275,-1.58728 -1.08075,-3.17577 -1.59375,-4.78125 z m 2.15625,6.375 c 0.39253,1.097 0.77618,2.19333 1.1875,3.28125 0.0825,0.21839 0.16671,0.43823 0.25,0.65625 0.0967,0.25308 0.21389,0.49763 0.3125,0.75 -0.5999,-1.55011 -1.18845,-3.11871 -1.75,-4.6875 z m 1.75,4.6875 c 0.40362,1.03293 0.80188,2.06847 1.21875,3.09375 0.004,0.009 -0.004,0.0223 0,0.0312 0.005,0.0126 0.0261,0.0188 0.0312,0.0312 0.26745,0.6573 0.53862,1.31327 0.8125,1.96875 -0.71227,-1.6966 -1.39672,-3.40466 -2.0625,-5.125 z m 135.96875,-4.65625 c 0.9648,0.58989 1.9212,1.17534 2.875,1.78125 -0.9507,-0.60416 -1.9133,-1.19301 -2.875,-1.78125 z m -69.59375,4.84375 c -0.70112,1.80623 -1.43514,3.59502 -2.1875,5.375 0.33634,-0.7996 0.67344,-1.60367 1,-2.40625 0.005,-0.0126 0.0261,-0.0188 0.0312,-0.0312 0.39686,-0.97592 0.77464,-1.95387 1.15625,-2.9375 z m -2.1875,5.375 c -0.74158,1.75448 -1.49076,3.49064 -2.28125,5.21875 0.78738,-1.72282 1.54341,-3.46465 2.28125,-5.21875 z m 80.5625,-4.5 c 1.0762,0.73966 2.15795,1.48968 3.21875,2.25 -1.0652,-0.76326 -2.13795,-1.50757 -3.21875,-2.25 z m -142.375,4.78125 c 0.1582,0.37417 0.30811,0.75284 0.46875,1.125 0.52937,1.22606 1.0735,2.44238 1.625,3.65625 -0.72312,-1.58443 -1.41169,-3.17467 -2.09375,-4.78125 z m 2.375,5.375 c 0.4642,1.01259 0.92395,2.02865 1.40625,3.03125 0.0446,0.0927 0.0803,0.18861 0.125,0.28125 0.2639,0.5464 0.54349,1.08291 0.8125,1.625 -0.80557,-1.62882 -1.58223,-3.28362 -2.34375,-4.9375 z m 56.75,0.4375 c -0.72229,1.55874 -1.45726,3.11987 -2.21875,4.65625 0.29409,-0.5935 0.58673,-1.18439 0.875,-1.78125 0.46132,-0.9554 0.90565,-1.91179 1.34375,-2.875 z m -2.28125,4.78125 c -0.8845,1.7814 -1.81374,3.53087 -2.75,5.28125 0.50031,-0.93596 1.01444,-1.86765 1.5,-2.8125 0.11293,-0.21967 0.23162,-0.4361 0.34375,-0.65625 0.30602,-0.60104 0.60649,-1.20748 0.90625,-1.8125 z m -2.75,5.28125 c -0.87043,1.62731 -1.77317,3.24408 -2.6875,4.84375 0.91688,-1.6048 1.81484,-3.21122 2.6875,-4.84375 z m -48.6875,-4.15625 c 0.11521,0.22849 0.22767,0.45952 0.34375,0.6875 0.11213,0.22015 0.23082,0.43658 0.34375,0.65625 0.48346,0.94076 1.00228,1.87969 1.5,2.8125 -0.73852,-1.38068 -1.48112,-2.7562 -2.1875,-4.15625 z m 2.1875,4.15625 c 0.93815,1.75827 1.88604,3.49195 2.875,5.21875 -0.98702,-1.71837 -1.93873,-3.46837 -2.875,-5.21875 z m 2.875,5.21875 c 0.98301,1.71641 1.99785,3.4126 3.03125,5.09375 -1.03675,-1.68536 -2.04423,-3.37538 -3.03125,-5.09375 z M 398.625,278.75 c 0.0168,0.0274 0.0144,0.0663 0.0312,0.0937 0.11061,0.17973 0.23258,0.3519 0.34375,0.53125 -0.12757,-0.20568 -0.24816,-0.41881 -0.375,-0.625 z m 151.5,-12.875 c 0.8994,0.83535 1.77245,1.67944 2.65625,2.53125 -0.8812,-0.84884 -1.75945,-1.69877 -2.65625,-2.53125 z m -114.03125,8.1875 c -0.90415,1.56529 -1.80449,3.11847 -2.75,4.65625 0.94114,-1.53164 1.84992,-3.09738 2.75,-4.65625 z m -2.78125,4.6875 c -0.99754,1.62161 -2.01983,3.2536 -3.0625,4.84375 1.04624,-1.59617 2.06175,-3.21589 3.0625,-4.84375 z m -3.21875,5.09375 c -2.15937,3.28257 -4.43528,6.48273 -6.78125,9.625 2.34672,-3.14372 4.62135,-6.34051 6.78125,-9.625 z m -27.78125,0.6875 c 0.30899,0.472 0.62288,0.94114 0.9375,1.40625 0.0791,0.11707 0.17061,0.22686 0.25,0.34375 0.54282,0.79876 1.1044,1.58341 1.65625,2.375 -0.96042,-1.36993 -1.91755,-2.72988 -2.84375,-4.125 z m 2.84375,4.125 c 0.17178,0.2464 0.32641,0.50481 0.5,0.75 0.0602,0.0851 0.12714,0.16499 0.1875,0.25 0.75473,1.06244 1.50614,2.14077 2.28125,3.1875 0.0396,0.0534 0.0854,0.10284 0.125,0.15625 0.11991,0.16158 0.25537,0.30806 0.375,0.46875 -1.17989,-1.58039 -2.33556,-3.19613 -3.46875,-4.8125 z m 3.46875,4.8125 c 0.67657,0.90878 1.33508,1.8193 2.03125,2.71875 0.0267,0.0345 0.067,0.0593 0.0937,0.0937 0.41262,0.53238 0.83301,1.06162 1.25,1.59375 -1.14908,-1.45243 -2.26628,-2.9212 -3.375,-4.40625 z m 3.71875,4.84375 c 0.31261,0.39638 0.6213,0.79643 0.9375,1.1875 0.87913,1.08779 1.78589,2.15024 2.6875,3.21875 -1.22722,-1.45444 -2.43947,-2.91635 -3.625,-4.40625 z m 3.625,4.4375 c -36.17706,42.86505 -90.29865,70.09375 -150.78125,70.09375 -14.3958,0 -28.4185,-1.57188 -41.9375,-4.5 -2.9526,13.57116 -4.53125,27.66827 -4.53125,42.125 0,108.93759 88.3124,197.25 197.25,197.25 108.9376,0 197.25,-88.31241 197.25,-197.25 0,-14.45774 -1.57845,-28.55208 -4.53125,-42.125 -13.5148,2.92621 -27.5466,4.5 -41.9375,4.5 -60.4829,0 -114.60419,-27.22847 -150.78125,-70.09375 z M 236.5,328.5625 c -0.576,1.26026 -1.1374,2.50692 -1.6875,3.78125 0.546,-1.26389 1.116,-2.53122 1.6875,-3.78125 z m -4.84375,11.53125 c -0.4771,1.24886 -0.9227,2.48911 -1.375,3.75 0.4502,-1.25422 0.9002,-2.5077 1.375,-3.75 z"
           id="path3851" />
        <path
           sodipodi:type="arc"
           style="fill:#ff0000;fill-opacity:1;stroke:none"
           id="path2985"
           sodipodi:cx="262.85715"
           sodipodi:cy="299.50504"
           sodipodi:rx="182.85715"
           sodipodi:ry="175.71428"
           d="m 445.71429,299.50504 c 0,97.04431 -81.86793,175.71427 -182.85714,175.71427 C 161.86793,475.21931 80,396.54935 80,299.50504 c 0,-97.04432 81.86793,-175.71428 182.85715,-175.71428 100.98921,0 182.85714,78.66996 182.85714,175.71428 z"
           transform="matrix(1.0787053,0,0,1.1225552,-18.358456,-160.63086)" />
        <path
           transform="matrix(1.0787053,0,0,1.1225552,283.20546,-160.63086)"
           d="m 445.71429,299.50504 c 0,97.04431 -81.86793,175.71427 -182.85714,175.71427 C 161.86793,475.21931 80,396.54935 80,299.50504 c 0,-97.04432 81.86793,-175.71428 182.85715,-175.71428 100.98921,0 182.85714,78.66996 182.85714,175.71428 z"
           sodipodi:ry="175.71428"
           sodipodi:rx="182.85715"
           sodipodi:cy="299.50504"
           sodipodi:cx="262.85715"
           id="path3755"
           style="fill:#00ff00;fill-opacity:1;stroke:none"
           sodipodi:type="arc" />
        <path
           inkscape:connector-curvature="0"
           style="fill:#ffff00;fill-opacity:1;stroke:none"
           d="M 415.96875,48.4375 C 386.98104,82.774781 369.5,127.13842 369.5,175.59375 c 0,48.45934 17.47673,92.81779 46.46875,127.15625 28.99202,-34.33846 46.46875,-78.69691 46.46875,-127.15625 0,-48.45533 -17.48104,-92.818969 -46.46875,-127.15625 z"
           id="path3772" />
        <path
           inkscape:connector-curvature="0"
           style="fill:#ff00ff;fill-opacity:1;stroke:none"
           d="m 415.96875,213.21875 c -94.47463,0 -173.41747,66.43472 -192.71875,155.125 13.51916,2.92812 27.54176,4.5 41.9375,4.5 94.47463,0 173.41747,-66.43472 192.71875,-155.125 -13.52027,-2.92863 -27.54049,-4.5 -41.9375,-4.5 z"
           id="path3777" />
        <path
           inkscape:connector-curvature="0"
           style="fill:#00ffff;fill-opacity:1;stroke:none"
           d="m 415.96875,213.21875 c -14.39701,0 -28.41723,1.57137 -41.9375,4.5 19.30128,88.69028 98.24412,155.125 192.71875,155.125 14.3909,0 28.42253,-1.57379 41.9375,-4.5 -19.30128,-88.69028 -98.24412,-155.125 -192.71875,-155.125 z"
           id="path3782" />
        <path
           inkscape:connector-curvature="0"
           style="fill:#ffffff;fill-opacity:1;stroke:none"
           d="m 415.96875,213.21875 c -1.47532,0 -2.93898,0.0297 -4.40625,0.0625 -1.05188,0.0231 -2.10849,0.0542 -3.15625,0.0937 -0.73891,0.0279 -1.48195,0.0578 -2.21875,0.0937 -0.68843,0.0342 -1.37598,0.0837 -2.0625,0.125 -1.14629,0.0689 -2.29665,0.13017 -3.4375,0.21875 -0.38472,0.0299 -0.77215,0.0617 -1.15625,0.0937 -0.36413,0.03 -0.73018,0.0617 -1.09375,0.0937 -2.88042,0.25676 -5.75022,0.55818 -8.59375,0.9375 -0.13567,0.0181 -0.27067,0.0441 -0.40625,0.0625 -5.20422,0.70522 -10.33615,1.62051 -15.40625,2.71875 0.25864,1.18846 0.53255,2.38214 0.8125,3.5625 0.16604,0.70007 0.32652,1.39659 0.5,2.09375 0.0415,0.16683 0.0831,0.33334 0.125,0.5 0.26121,1.03802 0.53492,2.06234 0.8125,3.09375 0.098,0.36412 0.1812,0.73047 0.28125,1.09375 0.18153,0.6593 0.37432,1.31223 0.5625,1.96875 0.77487,2.70334 1.61403,5.37677 2.5,8.03125 0.44299,1.32724 0.90474,2.65423 1.375,3.96875 0.39253,1.097 0.77618,2.19333 1.1875,3.28125 0.0825,0.21839 0.16671,0.43823 0.25,0.65625 0.49261,1.28892 1.01253,2.56797 1.53125,3.84375 0.004,0.009 -0.004,0.0223 0,0.0312 0.005,0.0126 0.0261,0.0187 0.0312,0.0312 0.51891,1.27529 1.0491,2.55067 1.59375,3.8125 1.05875,2.45212 2.15826,4.88181 3.3125,7.28125 0.0446,0.0927 0.0803,0.18861 0.125,0.28125 0.49127,1.01716 0.99187,2.02389 1.5,3.03125 0.11521,0.22849 0.22767,0.45952 0.34375,0.6875 0.11213,0.22015 0.23082,0.43658 0.34375,0.65625 2.3153,4.50532 4.79392,8.92313 7.4375,13.21875 0.11061,0.17973 0.23258,0.3519 0.34375,0.53125 0.72446,1.16877 1.47072,2.31641 2.21875,3.46875 0.67031,1.03196 1.34228,2.07522 2.03125,3.09375 0.0791,0.11707 0.17061,0.22686 0.25,0.34375 0.71178,1.04739 1.42497,2.09213 2.15625,3.125 0.0602,0.0851 0.12714,0.16499 0.1875,0.25 0.75473,1.06244 1.50614,2.14077 2.28125,3.1875 0.0396,0.0534 0.0854,0.10284 0.125,0.15625 0.79805,1.07542 1.58699,2.12902 2.40625,3.1875 0.0267,0.0345 0.067,0.0593 0.0937,0.0937 0.83418,1.07629 1.67545,2.16033 2.53125,3.21875 0.88418,1.09404 1.78059,2.17543 2.6875,3.25 9.57836,-11.34915 17.9016,-23.79878 24.75,-37.125 0.11293,-0.21967 0.23162,-0.4361 0.34375,-0.65625 0.32712,-0.64249 0.64848,-1.29097 0.96875,-1.9375 0.29409,-0.5935 0.58673,-1.18439 0.875,-1.78125 0.59553,-1.23335 1.1483,-2.47128 1.71875,-3.71875 0.006,-0.0126 0.0255,-0.0187 0.0312,-0.0312 1.1463,-2.50816 2.2383,-5.06178 3.28125,-7.625 0.005,-0.0126 0.0261,-0.0187 0.0312,-0.0312 0.39686,-0.97592 0.77464,-1.95387 1.15625,-2.9375 0.12181,-0.31386 0.25475,-0.62287 0.375,-0.9375 2.36343,-6.18658 4.41571,-12.53265 6.15625,-19 0.0901,-0.33487 0.19283,-0.66442 0.28125,-1 0.22761,-0.86405 0.4401,-1.72511 0.65625,-2.59375 0.12456,-0.50048 0.25427,-0.99801 0.375,-1.5 0.33054,-1.37475 0.63592,-2.77046 0.9375,-4.15625 -5.0699,-1.09799 -10.20183,-2.01328 -15.40605,-2.7185 -0.13558,-0.0184 -0.27058,-0.0444 -0.40625,-0.0625 -2.84353,-0.37932 -5.71333,-0.68074 -8.59375,-0.9375 -0.36385,-0.0324 -0.72933,-0.0633 -1.09375,-0.0937 -0.3848,-0.0317 -0.77083,-0.0642 -1.15625,-0.0937 -1.14085,-0.0886 -2.29121,-0.14982 -3.4375,-0.21875 -0.68584,-0.0406 -1.37479,-0.0914 -2.0625,-0.125 -0.738,-0.0366 -1.47859,-0.0654 -2.21875,-0.0937 -1.04776,-0.0395 -2.10437,-0.0706 -3.15625,-0.0937 -1.46841,-0.0323 -2.93008,-0.0625 -4.40625,-0.0625 z"
           id="path3787" />
      </g>
      <g
         transform="translate(0,1.3464159e-4)"
         id="g3875">
        <path
           transform="matrix(1.0787053,0,0,1.1225552,744.49868,-160.63086)"
           d="m 445.71429,299.50504 c 0,97.04431 -81.86793,175.71427 -182.85714,175.71427 C 161.86793,475.21931 80,396.54935 80,299.50504 c 0,-97.04432 81.86793,-175.71428 182.85715,-175.71428 100.98921,0 182.85714,78.66996 182.85714,175.71428 z"
           sodipodi:ry="175.71428"
           sodipodi:rx="182.85715"
           sodipodi:cy="299.50504"
           sodipodi:cx="262.85715"
           id="path3805"
           style="fill:#00ffff;fill-opacity:1;stroke:none"
           sodipodi:type="arc" />
        <path
           sodipodi:type="arc"
           style="fill:#ff00ff;fill-opacity:1;stroke:none"
           id="path3807"
           sodipodi:cx="262.85715"
           sodipodi:cy="299.50504"
           sodipodi:rx="182.85715"
           sodipodi:ry="175.71428"
           d="m 445.71429,299.50504 c 0,97.04431 -81.86793,175.71427 -182.85714,175.71427 C 161.86793,475.21931 80,396.54935 80,299.50504 c 0,-97.04432 81.86793,-175.71428 182.85715,-175.71428 100.98921,0 182.85714,78.66996 182.85714,175.71428 z"
           transform="matrix(1.0787053,0,0,1.1225552,1046.0626,-160.63086)" />
        <path
           transform="matrix(1.0787053,0,0,1.1225552,895.28064,74.262998)"
           d="m 445.71429,299.50504 c 0,97.04431 -81.86793,175.71427 -182.85714,175.71427 C 161.86793,475.21931 80,396.54935 80,299.50504 c 0,-97.04432 81.86793,-175.71428 182.85715,-175.71428 100.98921,0 182.85714,78.66996 182.85714,175.71428 z"
           sodipodi:ry="175.71428"
           sodipodi:rx="182.85715"
           sodipodi:cy="299.50504"
           sodipodi:cx="262.85715"
           id="path3809"
           style="fill:#ffff00;fill-opacity:1;stroke:none"
           sodipodi:type="arc" />
        <path
           inkscape:connector-curvature="0"
           id="path3811"
           d="m 1178.8259,48.4375 c -28.9877,34.337281 -46.4688,78.70092 -46.4688,127.15625 0,48.45934 17.4768,92.81779 46.4688,127.15625 28.992,-34.33846 46.4687,-78.69691 46.4687,-127.15625 0,-48.45533 -17.481,-92.818969 -46.4687,-127.15625 z"
           style="fill:#0000ff;fill-opacity:1;stroke:none" />
        <path
           inkscape:connector-curvature="0"
           id="path3813"
           d="m 1178.8259,213.21875 c -94.4746,0 -173.4175,66.43472 -192.71876,155.125 13.51916,2.92812 27.54176,4.5 41.93746,4.5 94.4747,0 173.4175,-66.43472 192.7188,-155.125 -13.5203,-2.92863 -27.5405,-4.5 -41.9375,-4.5 z"
           style="fill:#00ff00;fill-opacity:1;stroke:none" />
        <path
           inkscape:connector-curvature="0"
           id="path3815"
           d="m 1178.8259,213.21875 c -14.397,0 -28.4172,1.57137 -41.9375,4.5 19.3013,88.69028 98.2441,155.125 192.7187,155.125 14.3909,0 28.4226,-1.57379 41.9375,-4.5 -19.3012,-88.69028 -98.2441,-155.125 -192.7187,-155.125 z"
           style="fill:#ff0000;fill-opacity:1;stroke:none" />
        <path
           inkscape:connector-curvature="0"
           id="path3817"
           d="m 1178.8259,213.21875 c -1.4753,0 -2.939,0.0297 -4.4063,0.0625 -1.0518,0.0231 -2.1084,0.0542 -3.1562,0.0937 -0.7389,0.0279 -1.482,0.0578 -2.2188,0.0937 -0.6884,0.0342 -1.3759,0.0837 -2.0625,0.125 -1.1462,0.0689 -2.2966,0.13017 -3.4375,0.21875 -0.3847,0.0299 -0.7721,0.0617 -1.1562,0.0937 -0.3641,0.03 -0.7302,0.0617 -1.0938,0.0937 -2.8804,0.25676 -5.7502,0.55818 -8.5937,0.9375 -0.1357,0.0181 -0.2707,0.0441 -0.4063,0.0625 -5.2042,0.70522 -10.3361,1.62051 -15.4062,2.71875 0.2586,1.18846 0.5325,2.38214 0.8125,3.5625 0.166,0.70007 0.3265,1.39659 0.5,2.09375 0.042,0.16683 0.083,0.33334 0.125,0.5 0.2612,1.03802 0.5349,2.06234 0.8125,3.09375 0.098,0.36412 0.1812,0.73047 0.2812,1.09375 0.1816,0.6593 0.3744,1.31223 0.5625,1.96875 0.7749,2.70334 1.6141,5.37677 2.5,8.03125 0.443,1.32724 0.9048,2.65423 1.375,3.96875 0.3926,1.097 0.7762,2.19333 1.1875,3.28125 0.082,0.21839 0.1668,0.43823 0.25,0.65625 0.4926,1.28892 1.0126,2.56797 1.5313,3.84375 0,0.009 0,0.0223 0,0.0312 0,0.0126 0.026,0.0187 0.031,0.0312 0.5189,1.27529 1.0491,2.55067 1.5937,3.8125 1.0588,2.45212 2.1583,4.88181 3.3125,7.28125 0.045,0.0927 0.08,0.18861 0.125,0.28125 0.4913,1.01716 0.9919,2.02389 1.5,3.03125 0.1153,0.22849 0.2277,0.45952 0.3438,0.6875 0.1121,0.22015 0.2308,0.43658 0.3437,0.65625 2.3153,4.50532 4.794,8.92313 7.4375,13.21875 0.1107,0.17973 0.2326,0.3519 0.3438,0.53125 0.7244,1.16877 1.4707,2.31641 2.2187,3.46875 0.6704,1.03196 1.3423,2.07522 2.0313,3.09375 0.079,0.11707 0.1706,0.22686 0.25,0.34375 0.7118,1.04739 1.425,2.09213 2.1562,3.125 0.06,0.0851 0.1272,0.16499 0.1875,0.25 0.7548,1.06244 1.5062,2.14077 2.2813,3.1875 0.04,0.0534 0.085,0.10284 0.125,0.15625 0.798,1.07542 1.587,2.12902 2.4062,3.1875 0.027,0.0345 0.067,0.0593 0.094,0.0937 0.8342,1.07629 1.6755,2.16033 2.5313,3.21875 0.8842,1.09404 1.7806,2.17543 2.6875,3.25 9.5783,-11.34915 17.9016,-23.79878 24.75,-37.125 0.1129,-0.21967 0.2316,-0.4361 0.3437,-0.65625 0.3272,-0.64249 0.6485,-1.29097 0.9688,-1.9375 0.2941,-0.5935 0.5867,-1.18439 0.875,-1.78125 0.5955,-1.23335 1.1483,-2.47128 1.7187,-3.71875 0.01,-0.0126 0.025,-0.0187 0.031,-0.0312 1.1463,-2.50816 2.2383,-5.06178 3.2813,-7.625 0.01,-0.0126 0.026,-0.0187 0.031,-0.0312 0.3969,-0.97592 0.7746,-1.95387 1.1562,-2.9375 0.1219,-0.31386 0.2548,-0.62287 0.375,-0.9375 2.3635,-6.18658 4.4157,-12.53265 6.1563,-19 0.09,-0.33487 0.1928,-0.66442 0.2812,-1 0.2277,-0.86405 0.4401,-1.72511 0.6563,-2.59375 0.1245,-0.50048 0.2543,-0.99801 0.375,-1.5 0.3305,-1.37475 0.6359,-2.77046 0.9375,-4.15625 -5.0699,-1.09799 -10.2018,-2.01328 -15.4061,-2.7185 -0.1355,-0.0184 -0.2705,-0.0444 -0.4062,-0.0625 -2.8435,-0.37932 -5.7133,-0.68074 -8.5938,-0.9375 -0.3638,-0.0324 -0.7293,-0.0633 -1.0937,-0.0937 -0.3848,-0.0317 -0.7708,-0.0642 -1.1563,-0.0937 -1.1408,-0.0886 -2.2912,-0.14982 -3.4375,-0.21875 -0.6858,-0.0406 -1.3747,-0.0914 -2.0625,-0.125 -0.738,-0.0366 -1.4785,-0.0654 -2.2187,-0.0937 -1.0478,-0.0395 -2.1044,-0.0706 -3.1563,-0.0937 -1.4684,-0.0323 -2.93,-0.0625 -4.4062,-0.0625 z"
           style="fill:#000000;fill-opacity:1;stroke:none" />
      </g>
      <flowRoot
         transform="translate(-649.83095,-225.71429)"
         style="font-size:40px;font-style:normal;font-weight:normal;line-height:125%;letter-spacing:0px;word-spacing:0px;fill:#000000;fill-opacity:1;stroke:none;font-family:Sans"
         id="flowRoot3911"
         xml:space="preserve"><flowRegion
           id="flowRegion3913"><rect
             y="-324.78067"
             x="131.42857"
             height="257.14285"
             width="485.71429"
             id="rect3915" /></flowRegion><flowPara
           style="font-size:150px;font-style:normal;font-variant:normal;font-weight:500;font-stretch:normal;font-family:Ubuntu;-inkscape-font-specification:Ubuntu Medium"
           id="flowPara3917">RGB</flowPara></flowRoot>      <flowRoot
         transform="translate(880.40573,-225.71429)"
         xml:space="preserve"
         id="flowRoot3919"
         style="font-size:40px;font-style:normal;font-weight:normal;line-height:125%;letter-spacing:0px;word-spacing:0px;fill:#000000;fill-opacity:1;stroke:none;font-family:Sans"><flowRegion
           id="flowRegion3921"><rect
             id="rect3923"
             width="485.71429"
             height="257.14285"
             x="131.42857"
             y="-324.78067" /></flowRegion><flowPara
           id="flowPara3925"
           style="font-size:150px;font-style:normal;font-variant:normal;font-weight:500;font-stretch:normal;font-family:Ubuntu;-inkscape-font-specification:Ubuntu Medium">CMK</flowPara></flowRoot>      <g
         transform="matrix(0.75493803,-0.65579614,0.65579614,0.75493803,-540.95062,114.13241)"
         id="g3963">
        <rect
           style="fill:#000000;fill-opacity:1;stroke:none"
           id="rect3953"
           width="248.57143"
           height="7.8781691"
           x="-328.6777"
           y="48.063774"
           ry="0"
           transform="matrix(0,1,-1,0,0,0)" />
        <flowRoot
           xml:space="preserve"
           id="flowRoot3955"
           style="font-size:40px;font-style:normal;font-weight:normal;line-height:125%;letter-spacing:0px;word-spacing:0px;fill:#000000;fill-opacity:1;stroke:none;font-family:Sans"
           transform="translate(86.873119,123.23861)"><flowRegion
             id="flowRegion3957"><rect
               id="rect3959"
               width="187.88837"
               height="250.51784"
               x="-163.64471"
               y="-246.69398" /></flowRegion><flowPara
             id="flowPara3961"
             style="font-size:100px;font-style:normal;font-variant:normal;font-weight:bold;font-stretch:normal;font-family:Khmer OS System;-inkscape-font-specification:Khmer OS System">v</flowPara></flowRoot>      </g>
      <g
         id="g3970"
         transform="matrix(-0.75493803,-0.65579614,-0.65579614,0.75493803,-239.00286,114.13241)">
        <rect
           transform="matrix(0,1,-1,0,0,0)"
           ry="0"
           y="48.063774"
           x="-328.6777"
           height="7.8781691"
           width="248.57143"
           id="rect3972"
           style="fill:#000000;fill-opacity:1;stroke:none" />
        <flowRoot
           transform="translate(86.873119,123.23861)"
           style="font-size:40px;font-style:normal;font-weight:normal;line-height:125%;letter-spacing:0px;word-spacing:0px;fill:#000000;fill-opacity:1;stroke:none;font-family:Sans"
           id="flowRoot3974"
           xml:space="preserve"><flowRegion
             id="flowRegion3976"><rect
               y="-246.69398"
               x="-163.64471"
               height="250.51784"
               width="187.88837"
               id="rect3978" /></flowRegion><flowPara
             style="font-size:100px;font-style:normal;font-variant:normal;font-weight:bold;font-stretch:normal;font-family:Khmer OS System;-inkscape-font-specification:Khmer OS System"
             id="flowPara3980">v</flowPara></flowRoot>      </g>
      <g
         transform="matrix(0.65579614,-0.75493803,-0.75493803,-0.65579614,-265.93138,243.68968)"
         id="g3982">
        <rect
           style="fill:#000000;fill-opacity:1;stroke:none"
           id="rect3984"
           width="248.57143"
           height="7.8781691"
           x="-328.6777"
           y="48.063774"
           ry="0"
           transform="matrix(0,1,-1,0,0,0)" />
        <flowRoot
           xml:space="preserve"
           id="flowRoot3986"
           style="font-size:40px;font-style:normal;font-weight:normal;line-height:125%;letter-spacing:0px;word-spacing:0px;fill:#000000;fill-opacity:1;stroke:none;font-family:Sans"
           transform="translate(86.873119,123.23861)"><flowRegion
             id="flowRegion3988"><rect
               id="rect3990"
               width="187.88837"
               height="250.51784"
               x="-163.64471"
               y="-246.69398" /></flowRegion><flowPara
             id="flowPara3992"
             style="font-size:100px;font-style:normal;font-variant:normal;font-weight:bold;font-stretch:normal;font-family:Khmer OS System;-inkscape-font-specification:Khmer OS System">v</flowPara></flowRoot>      </g>
      <g
         id="g3994"
         transform="matrix(-0.65579614,-0.75493803,0.75493803,-0.65579614,-481.69721,243.68968)">
        <rect
           transform="matrix(0,1,-1,0,0,0)"
           ry="0"
           y="48.063774"
           x="-328.6777"
           height="7.8781691"
           width="248.57143"
           id="rect3996"
           style="fill:#000000;fill-opacity:1;stroke:none" />
        <flowRoot
           transform="translate(86.873119,123.23861)"
           style="font-size:40px;font-style:normal;font-weight:normal;line-height:125%;letter-spacing:0px;word-spacing:0px;fill:#000000;fill-opacity:1;stroke:none;font-family:Sans"
           id="flowRoot3998"
           xml:space="preserve"><flowRegion
             id="flowRegion4000"><rect
               y="-246.69398"
               x="-163.64471"
               height="250.51784"
               width="187.88837"
               id="rect4002" /></flowRegion><flowPara
             style="font-size:100px;font-style:normal;font-variant:normal;font-weight:bold;font-stretch:normal;font-family:Khmer OS System;-inkscape-font-specification:Khmer OS System"
             id="flowPara4004">v</flowPara></flowRoot>      </g>
      <g
         id="g4014"
         transform="matrix(0.99998798,0.00490365,0.00490365,-0.99998798,-319.14941,419.27089)">
        <rect
           transform="matrix(0,1,-1,0,0,0)"
           ry="0"
           y="48.063774"
           x="-328.6777"
           height="7.8781691"
           width="248.57143"
           id="rect4016"
           style="fill:#000000;fill-opacity:1;stroke:none" />
        <flowRoot
           transform="translate(86.873119,123.23861)"
           style="font-size:40px;font-style:normal;font-weight:normal;line-height:125%;letter-spacing:0px;word-spacing:0px;fill:#000000;fill-opacity:1;stroke:none;font-family:Sans"
           id="flowRoot4018"
           xml:space="preserve"><flowRegion
             id="flowRegion4020"><rect
               y="-246.69398"
               x="-163.64471"
               height="250.51784"
               width="187.88837"
               id="rect4022" /></flowRegion><flowPara
             style="font-size:100px;font-style:normal;font-variant:normal;font-weight:bold;font-stretch:normal;font-family:Khmer OS System;-inkscape-font-specification:Khmer OS System"
             id="flowPara4024">v</flowPara></flowRoot>      </g>
      <g
         transform="matrix(0.99998798,-0.00490365,0.00490365,0.99998798,-319.14941,204.40843)"
         id="g4026">
        <rect
           style="fill:#000000;fill-opacity:1;stroke:none"
           id="rect4028"
           width="248.57143"
           height="7.8781691"
           x="-328.6777"
           y="48.063774"
           ry="0"
           transform="matrix(0,1,-1,0,0,0)" />
        <flowRoot
           xml:space="preserve"
           id="flowRoot4030"
           style="font-size:40px;font-style:normal;font-weight:normal;line-height:125%;letter-spacing:0px;word-spacing:0px;fill:#000000;fill-opacity:1;stroke:none;font-family:Sans"
           transform="translate(86.873119,123.23861)"><flowRegion
             id="flowRegion4032"><rect
               id="rect4034"
               width="187.88837"
               height="250.51784"
               x="-163.64471"
               y="-246.69398" /></flowRegion><flowPara
             id="flowPara4036"
             style="font-size:100px;font-style:normal;font-variant:normal;font-weight:bold;font-stretch:normal;font-family:Khmer OS System;-inkscape-font-specification:Khmer OS System">v</flowPara></flowRoot>      </g>
      <g
         id="g4078"
         transform="matrix(0.75493803,-0.65579614,0.65579614,0.75493803,1019.0494,114.13241)">
        <rect
           transform="matrix(0,1,-1,0,0,0)"
           ry="0"
           y="48.063774"
           x="-328.6777"
           height="7.8781691"
           width="248.57143"
           id="rect4080"
           style="fill:#000000;fill-opacity:1;stroke:none" />
        <flowRoot
           transform="translate(86.873119,123.23861)"
           style="font-size:40px;font-style:normal;font-weight:normal;line-height:125%;letter-spacing:0px;word-spacing:0px;fill:#000000;fill-opacity:1;stroke:none;font-family:Sans"
           id="flowRoot4082"
           xml:space="preserve"><flowRegion
             id="flowRegion4084"><rect
               y="-246.69398"
               x="-163.64471"
               height="250.51784"
               width="187.88837"
               id="rect4086" /></flowRegion><flowPara
             style="font-size:100px;font-style:normal;font-variant:normal;font-weight:bold;font-stretch:normal;font-family:Khmer OS System;-inkscape-font-specification:Khmer OS System"
             id="flowPara4088">v</flowPara></flowRoot>      </g>
      <g
         transform="matrix(-0.75493803,-0.65579614,-0.65579614,0.75493803,1320.9971,114.13241)"
         id="g4090">
        <rect
           style="fill:#000000;fill-opacity:1;stroke:none"
           id="rect4092"
           width="248.57143"
           height="7.8781691"
           x="-328.6777"
           y="48.063774"
           ry="0"
           transform="matrix(0,1,-1,0,0,0)" />
        <flowRoot
           xml:space="preserve"
           id="flowRoot4094"
           style="font-size:40px;font-style:normal;font-weight:normal;line-height:125%;letter-spacing:0px;word-spacing:0px;fill:#000000;fill-opacity:1;stroke:none;font-family:Sans"
           transform="translate(86.873119,123.23861)"><flowRegion
             id="flowRegion4096"><rect
               id="rect4098"
               width="187.88837"
               height="250.51784"
               x="-163.64471"
               y="-246.69398" /></flowRegion><flowPara
             id="flowPara4100"
             style="font-size:100px;font-style:normal;font-variant:normal;font-weight:bold;font-stretch:normal;font-family:Khmer OS System;-inkscape-font-specification:Khmer OS System">v</flowPara></flowRoot>      </g>
      <g
         id="g4102"
         transform="matrix(0.65579614,-0.75493803,-0.75493803,-0.65579614,1294.0686,243.68968)">
        <rect
           transform="matrix(0,1,-1,0,0,0)"
           ry="0"
           y="48.063774"
           x="-328.6777"
           height="7.8781691"
           width="248.57143"
           id="rect4104"
           style="fill:#000000;fill-opacity:1;stroke:none" />
        <flowRoot
           transform="translate(86.873119,123.23861)"
           style="font-size:40px;font-style:normal;font-weight:normal;line-height:125%;letter-spacing:0px;word-spacing:0px;fill:#000000;fill-opacity:1;stroke:none;font-family:Sans"
           id="flowRoot4106"
           xml:space="preserve"><flowRegion
             id="flowRegion4108"><rect
               y="-246.69398"
               x="-163.64471"
               height="250.51784"
               width="187.88837"
               id="rect4110" /></flowRegion><flowPara
             style="font-size:100px;font-style:normal;font-variant:normal;font-weight:bold;font-stretch:normal;font-family:Khmer OS System;-inkscape-font-specification:Khmer OS System"
             id="flowPara4112">v</flowPara></flowRoot>      </g>
      <g
         transform="matrix(-0.65579614,-0.75493803,0.75493803,-0.65579614,1078.3028,243.68968)"
         id="g4114">
        <rect
           style="fill:#000000;fill-opacity:1;stroke:none"
           id="rect4116"
           width="248.57143"
           height="7.8781691"
           x="-328.6777"
           y="48.063774"
           ry="0"
           transform="matrix(0,1,-1,0,0,0)" />
        <flowRoot
           xml:space="preserve"
           id="flowRoot4118"
           style="font-size:40px;font-style:normal;font-weight:normal;line-height:125%;letter-spacing:0px;word-spacing:0px;fill:#000000;fill-opacity:1;stroke:none;font-family:Sans"
           transform="translate(86.873119,123.23861)"><flowRegion
             id="flowRegion4120"><rect
               id="rect4122"
               width="187.88837"
               height="250.51784"
               x="-163.64471"
               y="-246.69398" /></flowRegion><flowPara
             id="flowPara4124"
             style="font-size:100px;font-style:normal;font-variant:normal;font-weight:bold;font-stretch:normal;font-family:Khmer OS System;-inkscape-font-specification:Khmer OS System">v</flowPara></flowRoot>      </g>
      <g
         transform="matrix(0.99998798,0.00490365,0.00490365,-0.99998798,1240.8506,419.27089)"
         id="g4126">
        <rect
           style="fill:#000000;fill-opacity:1;stroke:none"
           id="rect4128"
           width="248.57143"
           height="7.8781691"
           x="-328.6777"
           y="48.063774"
           ry="0"
           transform="matrix(0,1,-1,0,0,0)" />
        <flowRoot
           xml:space="preserve"
           id="flowRoot4130"
           style="font-size:40px;font-style:normal;font-weight:normal;line-height:125%;letter-spacing:0px;word-spacing:0px;fill:#000000;fill-opacity:1;stroke:none;font-family:Sans"
           transform="translate(86.873119,123.23861)"><flowRegion
             id="flowRegion4132"><rect
               id="rect4134"
               width="187.88837"
               height="250.51784"
               x="-163.64471"
               y="-246.69398" /></flowRegion><flowPara
             id="flowPara4136"
             style="font-size:100px;font-style:normal;font-variant:normal;font-weight:bold;font-stretch:normal;font-family:Khmer OS System;-inkscape-font-specification:Khmer OS System">v</flowPara></flowRoot>      </g>
      <g
         id="g4138"
         transform="matrix(0.99998798,-0.00490365,0.00490365,0.99998798,1236.81,212.48965)">
        <rect
           transform="matrix(0,1,-1,0,0,0)"
           ry="0"
           y="48.063774"
           x="-328.6777"
           height="7.8781691"
           width="248.57143"
           id="rect4140"
           style="fill:#000000;fill-opacity:1;stroke:none" />
        <flowRoot
           transform="translate(86.873119,123.23861)"
           style="font-size:40px;font-style:normal;font-weight:normal;line-height:125%;letter-spacing:0px;word-spacing:0px;fill:#000000;fill-opacity:1;stroke:none;font-family:Sans"
           id="flowRoot4142"
           xml:space="preserve"><flowRegion
             id="flowRegion4144"><rect
               y="-246.69398"
               x="-163.64471"
               height="250.51784"
               width="187.88837"
               id="rect4146" /></flowRegion><flowPara
             style="font-size:100px;font-style:normal;font-variant:normal;font-weight:bold;font-stretch:normal;font-family:Khmer OS System;-inkscape-font-specification:Khmer OS System"
             id="flowPara4148">v</flowPara></flowRoot>      </g>
      <flowRoot
         xml:space="preserve"
         id="flowRoot4241"
         style="font-size:20px;font-style:normal;font-weight:normal;line-height:125%;letter-spacing:0px;word-spacing:0px;fill:#000000;fill-opacity:1;stroke:none;font-family:Sans"
         transform="translate(-1092.6881,148.57142)"><flowRegion
           id="flowRegion4243"><rect
             style="font-size:20px"
             id="rect4245"
             width="485.71429"
             height="257.14285"
             x="131.42857"
             y="-324.78067" /></flowRegion><flowPara
           id="flowPara4247"
           style="font-size:50px;font-style:normal;font-variant:normal;font-weight:500;font-stretch:normal;font-family:Ubuntu;-inkscape-font-specification:Ubuntu Medium">VERMELHO</flowPara></flowRoot>      <flowRoot
         transform="translate(-175.54524,148.57142)"
         style="font-size:20px;font-style:normal;font-weight:normal;line-height:125%;letter-spacing:0px;word-spacing:0px;fill:#000000;fill-opacity:1;stroke:none;font-family:Sans"
         id="flowRoot4249"
         xml:space="preserve"><flowRegion
           id="flowRegion4251"><rect
             y="-324.78067"
             x="131.42857"
             height="257.14285"
             width="485.71429"
             id="rect4253"
             style="font-size:20px" /></flowRegion><flowPara
           style="font-size:50px;font-style:normal;font-variant:normal;font-weight:500;font-stretch:normal;font-family:Ubuntu;-inkscape-font-specification:Ubuntu Medium"
           id="flowPara4255">VERDE</flowPara></flowRoot>      <flowRoot
         xml:space="preserve"
         id="flowRoot4257"
         style="font-size:20px;font-style:normal;font-weight:normal;line-height:125%;letter-spacing:0px;word-spacing:0px;fill:#000000;fill-opacity:1;stroke:none;font-family:Sans"
         transform="translate(-606.97381,125.71428)"><flowRegion
           id="flowRegion4259"><rect
             style="font-size:20px"
             id="rect4261"
             width="485.71429"
             height="257.14285"
             x="131.42857"
             y="-324.78067" /></flowRegion><flowPara
           id="flowPara4263"
           style="font-size:50px;font-style:normal;font-variant:normal;font-weight:500;font-stretch:normal;font-family:Ubuntu;-inkscape-font-specification:Ubuntu Medium">AMARELO</flowPara></flowRoot>      <flowRoot
         transform="translate(-566.97381,1088.5714)"
         style="font-size:20px;font-style:normal;font-weight:normal;line-height:125%;letter-spacing:0px;word-spacing:0px;fill:#000000;fill-opacity:1;stroke:none;font-family:Sans"
         id="flowRoot4265"
         xml:space="preserve"><flowRegion
           id="flowRegion4267"><rect
             y="-324.78067"
             x="131.42857"
             height="257.14285"
             width="485.71429"
             id="rect4269"
             style="font-size:20px" /></flowRegion><flowPara
           style="font-size:50px;font-style:normal;font-variant:normal;font-weight:500;font-stretch:normal;font-family:Ubuntu;-inkscape-font-specification:Ubuntu Medium"
           id="flowPara4271">AZUL</flowPara></flowRoot>      <flowRoot
         xml:space="preserve"
         id="flowRoot4273"
         style="font-size:20px;font-style:normal;font-weight:normal;line-height:125%;letter-spacing:0px;word-spacing:0px;fill:#000000;fill-opacity:1;stroke:none;font-family:Sans"
         transform="translate(-961.25952,825.71426)"><flowRegion
           id="flowRegion4275"><rect
             style="font-size:20px"
             id="rect4277"
             width="485.71429"
             height="257.14285"
             x="131.42857"
             y="-324.78067" /></flowRegion><flowPara
           id="flowPara4279"
           style="font-size:50px;font-style:normal;font-variant:normal;font-weight:500;font-stretch:normal;font-family:Ubuntu;-inkscape-font-specification:Ubuntu Medium">MAGENTA</flowPara></flowRoot>      <flowRoot
         transform="translate(-218.40237,828.5714)"
         style="font-size:20px;font-style:normal;font-weight:normal;line-height:125%;letter-spacing:0px;word-spacing:0px;fill:#000000;fill-opacity:1;stroke:none;font-family:Sans"
         id="flowRoot4281"
         xml:space="preserve"><flowRegion
           id="flowRegion4283"><rect
             y="-324.78067"
             x="131.42857"
             height="257.14285"
             width="485.71429"
             id="rect4285"
             style="font-size:20px" /></flowRegion><flowPara
           style="font-size:50px;font-style:normal;font-variant:normal;font-weight:500;font-stretch:normal;font-family:Ubuntu;-inkscape-font-specification:Ubuntu Medium"
           id="flowPara4287">CIANO</flowPara></flowRoot>      <flowRoot
         transform="translate(1273.0262,822.85713)"
         style="font-size:20px;font-style:normal;font-weight:normal;line-height:125%;letter-spacing:0px;word-spacing:0px;fill:#000000;fill-opacity:1;stroke:none;font-family:Sans"
         id="flowRoot4289"
         xml:space="preserve"><flowRegion
           id="flowRegion4291"><rect
             y="-324.78067"
             x="131.42857"
             height="257.14285"
             width="485.71429"
             id="rect4293"
             style="font-size:20px" /></flowRegion><flowPara
           style="font-size:50px;font-style:normal;font-variant:normal;font-weight:500;font-stretch:normal;font-family:Ubuntu;-inkscape-font-specification:Ubuntu Medium"
           id="flowPara4295">VERMELHO</flowPara></flowRoot>      <flowRoot
         xml:space="preserve"
         id="flowRoot4297"
         style="font-size:20px;font-style:normal;font-weight:normal;line-height:125%;letter-spacing:0px;word-spacing:0px;fill:#000000;fill-opacity:1;stroke:none;font-family:Sans"
         transform="translate(987.3119,122.85711)"><flowRegion
           id="flowRegion4299"><rect
             style="font-size:20px"
             id="rect4301"
             width="485.71429"
             height="257.14285"
             x="131.42857"
             y="-324.78067" /></flowRegion><flowPara
           id="flowPara4303"
           style="font-size:50px;font-style:normal;font-variant:normal;font-weight:500;font-stretch:normal;font-family:Ubuntu;-inkscape-font-specification:Ubuntu Medium">AZUL</flowPara></flowRoot>      <flowRoot
         transform="translate(1324.4548,148.5714)"
         style="font-size:20px;font-style:normal;font-weight:normal;line-height:125%;letter-spacing:0px;word-spacing:0px;fill:#000000;fill-opacity:1;stroke:none;font-family:Sans"
         id="flowRoot4305"
         xml:space="preserve"><flowRegion
           id="flowRegion4307"><rect
             y="-324.78067"
             x="131.42857"
             height="257.14285"
             width="485.71429"
             id="rect4309"
             style="font-size:20px" /></flowRegion><flowPara
           style="font-size:50px;font-style:normal;font-variant:normal;font-weight:500;font-stretch:normal;font-family:Ubuntu;-inkscape-font-specification:Ubuntu Medium"
           id="flowPara4311">MAGENTA</flowPara></flowRoot>      <flowRoot
         xml:space="preserve"
         id="flowRoot4313"
         style="font-size:20px;font-style:normal;font-weight:normal;line-height:125%;letter-spacing:0px;word-spacing:0px;fill:#000000;fill-opacity:1;stroke:none;font-family:Sans"
         transform="translate(635.88333,822.85713)"><flowRegion
           id="flowRegion4315"><rect
             style="font-size:20px"
             id="rect4317"
             width="485.71429"
             height="257.14285"
             x="131.42857"
             y="-324.78067" /></flowRegion><flowPara
           id="flowPara4319"
           style="font-size:50px;font-style:normal;font-variant:normal;font-weight:500;font-stretch:normal;font-family:Ubuntu;-inkscape-font-specification:Ubuntu Medium">VERDE</flowPara></flowRoot>      <flowRoot
         xml:space="preserve"
         id="flowRoot4321"
         style="font-size:20px;font-style:normal;font-weight:normal;line-height:125%;letter-spacing:0px;word-spacing:0px;fill:#000000;fill-opacity:1;stroke:none;font-family:Sans"
         transform="translate(541.59763,151.42854)"><flowRegion
           id="flowRegion4323"><rect
             style="font-size:20px"
             id="rect4325"
             width="485.71429"
             height="257.14285"
             x="131.42857"
             y="-324.78067" /></flowRegion><flowPara
           id="flowPara4327"
           style="font-size:50px;font-style:normal;font-variant:normal;font-weight:500;font-stretch:normal;font-family:Ubuntu;-inkscape-font-specification:Ubuntu Medium">CIANO</flowPara></flowRoot>      <flowRoot
         transform="translate(938.74048,1074.2857)"
         style="font-size:20px;font-style:normal;font-weight:normal;line-height:125%;letter-spacing:0px;word-spacing:0px;fill:#000000;fill-opacity:1;stroke:none;font-family:Sans"
         id="flowRoot4329"
         xml:space="preserve"><flowRegion
           id="flowRegion4331"><rect
             y="-324.78067"
             x="131.42857"
             height="257.14285"
             width="485.71429"
             id="rect4333"
             style="font-size:20px" /></flowRegion><flowPara
           style="font-size:50px;font-style:normal;font-variant:normal;font-weight:500;font-stretch:normal;font-family:Ubuntu;-inkscape-font-specification:Ubuntu Medium"
           id="flowPara4335">AMARELO</flowPara></flowRoot>    </g>
  </g>
</svg>
